<svg xmlns="http://www.w3.org/2000/svg" viewBox="0 0 795.34 51.54" id="good-use-co-logo-horizontal"><title>good-use-logo-horizontal</title><g id="logo"><g id="the"><path d="M140.13,468.13a3.12,3.12,0,0,1-3.14,3.15H123.23v40a3.15,3.15,0,0,1-3.15,3.14,3.11,3.11,0,0,1-3.14-3.14v-40H103.11a3.15,3.15,0,0,1,0-6.29H137A3.11,3.11,0,0,1,140.13,468.13Z" transform="translate(-99.97 -463.99)" style="fill:#FF4EA8"/><path d="M194.56,468v43.11a3.15,3.15,0,0,1-3.14,3.15,3.2,3.2,0,0,1-3.15-3.15V492.27H161.19v18.85a3.15,3.15,0,1,1-6.29,0V468a3.15,3.15,0,0,1,6.29,0v18h27.08V468a3.15,3.15,0,0,1,3.15-3.14A3.11,3.11,0,0,1,194.56,468Z" transform="translate(-99.97 -463.99)" style="fill:#FF4EA8"/><path d="M245.65,511.19a3.11,3.11,0,0,1-3.14,3.14h-30a3.15,3.15,0,0,1-3.14-3.14V468.13a3.15,3.15,0,0,1,3.14-3.14h29.41a3.15,3.15,0,1,1,0,6.29H215.61v15.14h23.26a3.15,3.15,0,0,1,3.14,3.15,3.11,3.11,0,0,1-3.14,3.14H215.61V508h26.9A3.12,3.12,0,0,1,245.65,511.19Z" transform="translate(-99.97 -463.99)" style="fill:#FF4EA8"/></g><g id="good"><path d="M319.25,515.52a26.13,26.13,0,0,1-18.29-7.6,25.47,25.47,0,0,1-5.53-8.11,24.87,24.87,0,0,1-2-9.93,24.91,24.91,0,0,1,7.6-18,26.07,26.07,0,0,1,18.35-7.54A25.17,25.17,0,0,1,334,469a3.13,3.13,0,0,1,.75,4.4,3.19,3.19,0,0,1-4.4.75,18.52,18.52,0,0,0-11-3.52,20.09,20.09,0,0,0-13.89,5.72,20,20,0,0,0-4.27,6.16,19,19,0,0,0-1.51,7.42,18.75,18.75,0,0,0,1.51,7.42,19,19,0,0,0,4.21,6.16,19.49,19.49,0,0,0,13.83,5.78,18.91,18.91,0,0,0,7.92-1.7,19.43,19.43,0,0,0,5.47-3.77V490.7a3.14,3.14,0,1,1,6.28,0v14.39a3.14,3.14,0,0,1-.82,2.07,25.65,25.65,0,0,1-8.35,6.1A25,25,0,0,1,319.25,515.52Z" transform="translate(-99.97 -463.99)" style="fill:#FF4EA8"/><path d="M379.21,515.46a25.34,25.34,0,0,1-10.06-2.07,26,26,0,0,1-8.23-5.53,26.87,26.87,0,0,1-5.53-8.17,25.47,25.47,0,0,1-2-9.87,24.49,24.49,0,0,1,2.08-9.93,25.54,25.54,0,0,1,5.59-8.11,26,26,0,0,1,8.24-5.53,26.39,26.39,0,0,1,10.11-2A25.36,25.36,0,0,1,402.78,480a25.32,25.32,0,0,1,1.94,9.87,25.57,25.57,0,0,1-7.35,18A25.28,25.28,0,0,1,379.21,515.46Zm.18-44.94a20,20,0,0,0-7.66,1.51,19.47,19.47,0,0,0-6.29,4.21,18,18,0,0,0-4.21,6.16,17.66,17.66,0,0,0-1.57,7.42,19,19,0,0,0,5.72,13.57A19.27,19.27,0,0,0,397,497.3a20.19,20.19,0,0,0,1.45-7.48A19.25,19.25,0,0,0,393,476.24,18.71,18.71,0,0,0,379.39,470.52Z" transform="translate(-99.97 -463.99)" style="fill:#FF4EA8"/><path d="M440,515.46a25.34,25.34,0,0,1-10.06-2.07,26.15,26.15,0,0,1-8.23-5.53,27.06,27.06,0,0,1-5.53-8.17,25.46,25.46,0,0,1-2-9.87,24.48,24.48,0,0,1,2.07-9.93,25.57,25.57,0,0,1,5.6-8.11,26,26,0,0,1,8.23-5.53,26.44,26.44,0,0,1,10.12-2A25.32,25.32,0,0,1,463.55,480a25.33,25.33,0,0,1,1.95,9.87,25.63,25.63,0,0,1-7.36,18A25.28,25.28,0,0,1,440,515.46Zm.19-44.94A20,20,0,0,0,432.5,472a19.43,19.43,0,0,0-6.28,4.21A17.86,17.86,0,0,0,422,482.4a17.67,17.67,0,0,0-1.58,7.42,19,19,0,0,0,5.72,13.57A19.45,19.45,0,0,0,440,509.17a19.25,19.25,0,0,0,13.7-5.71,19.68,19.68,0,0,0,4.09-6.16,20.39,20.39,0,0,0,1.44-7.48,19.29,19.29,0,0,0-5.46-13.58A18.74,18.74,0,0,0,440.17,470.52Z" transform="translate(-99.97 -463.99)" style="fill:#FF4EA8"/><path d="M498.55,514.39H483.09a3.15,3.15,0,0,1-3.14-3.14V468.13a3,3,0,0,1,.94-2.2,3.25,3.25,0,0,1,2.2-.94h15.59a25.69,25.69,0,0,1,18,7.29,25.24,25.24,0,0,1,5.46,7.86,24.17,24.17,0,0,1,2,9.61,23,23,0,0,1-2.07,9.56,24.4,24.4,0,0,1-5.53,7.85,25.47,25.47,0,0,1-8.11,5.28A26.47,26.47,0,0,1,498.55,514.39Zm-12.31-6.28h12.44A20.92,20.92,0,0,0,506,506.6a19,19,0,0,0,6.16-4,19.29,19.29,0,0,0,4.15-5.91,16.74,16.74,0,0,0,1.51-7,17.32,17.32,0,0,0-1.51-7.1,17.72,17.72,0,0,0-4.08-5.84,19.15,19.15,0,0,0-13.58-5.53H486.24Z" transform="translate(-99.97 -463.99)" style="fill:#FF4EA8"/></g><g id="use"><path d="M592.7,515.15A23,23,0,0,1,581,512.32a16.79,16.79,0,0,1-6.48-6.6,24,24,0,0,1-2.57-11.38V468.13A3.19,3.19,0,0,1,575,465a3.15,3.15,0,0,1,3.14,3.14v26.21A17.61,17.61,0,0,0,580,502.7a10.47,10.47,0,0,0,4.08,4.21,20,20,0,0,0,17.22,0,10.56,10.56,0,0,0,4-4.15,17.94,17.94,0,0,0,1.83-8.42V468.13A3.19,3.19,0,0,1,610.3,465a3.15,3.15,0,0,1,3.14,3.14v26.21a23.89,23.89,0,0,1-2.57,11.38C608.54,510.05,603.51,515.15,592.7,515.15Z" transform="translate(-99.97 -463.99)" style="fill:#FF4EA8"/><path d="M646.5,515.15c-13.64,0-17.47-6.41-17.91-7.17a3.14,3.14,0,0,1,5.47-3.08,7.4,7.4,0,0,0,2.38,1.89c3.15,1.69,7.23,2.07,10.06,2.07,4.15,0,7.29-.88,9-2.51a5.22,5.22,0,0,0,1.7-3.9,7.15,7.15,0,0,0-2.2-5.53c-1.95-1.95-5.34-3.39-10.12-4.34a25.18,25.18,0,0,1-8.86-3.58,15.16,15.16,0,0,1-4.72-5.09,13.25,13.25,0,0,1-1.82-6.73,12.27,12.27,0,0,1,4.27-9.05,15.11,15.11,0,0,1,4.78-2.82,17.56,17.56,0,0,1,6.1-1c12.25,0,15.84,5.78,16.21,6.47a3.16,3.16,0,0,1-1.19,4.28,3.13,3.13,0,0,1-4.21-1.13,8.3,8.3,0,0,0-2.08-1.64,19.21,19.21,0,0,0-8.73-1.7,9.68,9.68,0,0,0-6.73,2.27,6.15,6.15,0,0,0-2.13,4.46v.13a7,7,0,0,0,1.13,3.64,9,9,0,0,0,2.89,2.89,18.92,18.92,0,0,0,6.35,2.45c6,1.2,10.37,3.15,13.26,6a13.57,13.57,0,0,1,4.08,10.06,11.67,11.67,0,0,1-3.7,8.55C656.87,513.76,652.35,515.15,646.5,515.15Z" transform="translate(-99.97 -463.99)" style="fill:#FF4EA8"/><path d="M714.63,511.19a3.11,3.11,0,0,1-3.15,3.14h-30a3.15,3.15,0,0,1-3.14-3.14V468.13a3.15,3.15,0,0,1,3.14-3.14h29.42a3.15,3.15,0,0,1,0,6.29H684.58v15.14h23.26a3.15,3.15,0,0,1,3.14,3.15,3.11,3.11,0,0,1-3.14,3.14H684.58V508h26.9A3.12,3.12,0,0,1,714.63,511.19Z" transform="translate(-99.97 -463.99)" style="fill:#FF4EA8"/></g><g id="co"><path d="M788.22,515.21a25.25,25.25,0,0,1-10.12-2.08,26.36,26.36,0,0,1-8.17-5.53,25,25,0,0,1-5.53-8.17,24.34,24.34,0,0,1-2-9.86,24.87,24.87,0,0,1,7.61-18A26,26,0,0,1,788.35,464a24.81,24.81,0,0,1,15.33,5.15,3.14,3.14,0,0,1-3.77,5,18.59,18.59,0,0,0-11.56-3.9,19.73,19.73,0,0,0-18.17,11.88,18.74,18.74,0,0,0-1.5,7.42,18.91,18.91,0,0,0,5.71,13.57,19.47,19.47,0,0,0,13.83,5.78,19.87,19.87,0,0,0,6.66-1.19,19.5,19.5,0,0,0,5.66-3.27,3.12,3.12,0,0,1,4,4.78,25.66,25.66,0,0,1-7.48,4.34A25.28,25.28,0,0,1,788.22,515.21Z" transform="translate(-99.97 -463.99)" style="fill:#FF4EA8"/><path d="M846,515.46a25.34,25.34,0,0,1-10.06-2.07,26.15,26.15,0,0,1-8.23-5.53,27.06,27.06,0,0,1-5.53-8.17,25.46,25.46,0,0,1-2-9.87,24.48,24.48,0,0,1,2.07-9.93,25.57,25.57,0,0,1,5.6-8.11,25.87,25.87,0,0,1,8.23-5.53,26.4,26.4,0,0,1,10.12-2A25.32,25.32,0,0,1,869.55,480a25.33,25.33,0,0,1,2,9.87,25.63,25.63,0,0,1-7.36,18A25.28,25.28,0,0,1,846,515.46Zm.19-44.94A20,20,0,0,0,838.5,472a19.43,19.43,0,0,0-6.28,4.21A18,18,0,0,0,828,482.4a17.81,17.81,0,0,0-1.57,7.42,19,19,0,0,0,5.72,13.57A19.45,19.45,0,0,0,846,509.17a19.25,19.25,0,0,0,13.7-5.71,19.68,19.68,0,0,0,4.09-6.16,20.39,20.39,0,0,0,1.44-7.48,19.25,19.25,0,0,0-5.47-13.58A18.7,18.7,0,0,0,846.17,470.52Z" transform="translate(-99.97 -463.99)" style="fill:#FF4EA8"/><path d="M895.32,509.68a4.69,4.69,0,1,1-9.37,0,4.69,4.69,0,1,1,9.37,0Z" transform="translate(-99.97 -463.99)" style="fill:#FF4EA8"/></g></g></svg>
