<svg xmlns="http://www.w3.org/2000/svg" viewBox="0 0 230.72 276.85" id="good-use-co-logo-vertical"><title>good-use-logo-vertical</title><g id="logo"><g id="the"><path d="M465,355a3.11,3.11,0,0,1-3.14,3.14H448.06v40a3.15,3.15,0,0,1-3.14,3.14,3.11,3.11,0,0,1-3.15-3.14v-40H427.94a3.15,3.15,0,0,1,0-6.29h33.88A3.12,3.12,0,0,1,465,355Z" transform="translate(-382.29 -351.74)" style="fill:#FF4EA8"/><path d="M519.39,354.88V398a3.15,3.15,0,0,1-3.14,3.14,3.19,3.19,0,0,1-3.14-3.14V379.14H486V398a3.15,3.15,0,0,1-6.29,0V354.88a3.15,3.15,0,0,1,6.29,0v18h27.09v-18a3.15,3.15,0,0,1,3.14-3.14A3.11,3.11,0,0,1,519.39,354.88Z" transform="translate(-382.29 -351.74)" style="fill:#FF4EA8"/><path d="M570.49,398.06a3.12,3.12,0,0,1-3.15,3.14h-30a3.15,3.15,0,0,1-3.14-3.14V355a3.15,3.15,0,0,1,3.14-3.15h29.41a3.15,3.15,0,1,1,0,6.29H540.44V373.3H563.7a3.15,3.15,0,0,1,3.14,3.14,3.11,3.11,0,0,1-3.14,3.14H540.44v15.34h26.9A3.12,3.12,0,0,1,570.49,398.06Z" transform="translate(-382.29 -351.74)" style="fill:#FF4EA8"/></g><g id="good"><path d="M408.12,477.81a26.13,26.13,0,0,1-18.29-7.6,25.47,25.47,0,0,1-5.53-8.11,24.67,24.67,0,0,1-2-9.93,24.91,24.91,0,0,1,7.6-18,26.07,26.07,0,0,1,18.35-7.54,25.29,25.29,0,0,1,14.65,4.65,3.14,3.14,0,0,1,.75,4.4,3.2,3.2,0,0,1-4.4.76,18.47,18.47,0,0,0-11-3.52,20,20,0,0,0-13.89,5.72,19.67,19.67,0,0,0-4.27,6.15,18.79,18.79,0,0,0-1.51,7.42,18.58,18.58,0,0,0,1.51,7.42,18.87,18.87,0,0,0,4.21,6.16,19.45,19.45,0,0,0,13.83,5.78,19,19,0,0,0,7.92-1.7,19.24,19.24,0,0,0,5.46-3.77V453a3.15,3.15,0,0,1,6.29,0v14.39a3.22,3.22,0,0,1-.82,2.08,25.8,25.8,0,0,1-8.36,6.09A25,25,0,0,1,408.12,477.81Z" transform="translate(-382.29 -351.74)" style="fill:#FF4EA8"/><path d="M468.07,477.75A25.29,25.29,0,0,1,458,475.68a26,26,0,0,1-8.24-5.53,26.93,26.93,0,0,1-5.53-8.17,25.46,25.46,0,0,1-2-9.87,24.33,24.33,0,0,1,2.08-9.93,25.65,25.65,0,0,1,5.59-8.11,26,26,0,0,1,8.23-5.53,26.44,26.44,0,0,1,10.12-2,25.32,25.32,0,0,1,23.38,15.71,25.33,25.33,0,0,1,1.95,9.87,25.68,25.68,0,0,1-7.35,18A25.29,25.29,0,0,1,468.07,477.75Zm.19-44.94a20.24,20.24,0,0,0-7.67,1.51,19.54,19.54,0,0,0-6.28,4.21,18,18,0,0,0-4.21,6.16,17.66,17.66,0,0,0-1.57,7.42,19,19,0,0,0,5.72,13.57,19.27,19.27,0,0,0,31.61-6.09,20.36,20.36,0,0,0,1.45-7.48,19.27,19.27,0,0,0-5.47-13.58A18.71,18.71,0,0,0,468.26,432.81Z" transform="translate(-382.29 -351.74)" style="fill:#FF4EA8"/><path d="M528.85,477.75a25.34,25.34,0,0,1-10.06-2.07,26,26,0,0,1-8.23-5.53A26.75,26.75,0,0,1,505,462a25.46,25.46,0,0,1-2-9.87,24.48,24.48,0,0,1,2.07-9.93,26.43,26.43,0,0,1,13.83-13.64,26.4,26.4,0,0,1,10.12-2,25.32,25.32,0,0,1,23.38,15.71,25.33,25.33,0,0,1,2,9.87,25.63,25.63,0,0,1-7.36,18A25.28,25.28,0,0,1,528.85,477.75Zm.19-44.94a20.2,20.2,0,0,0-7.67,1.51,19.58,19.58,0,0,0-6.29,4.21,18.14,18.14,0,0,0-4.21,6.16,17.66,17.66,0,0,0-1.57,7.42,18.71,18.71,0,0,0,1.51,7.41,18.92,18.92,0,0,0,4.21,6.16,19.27,19.27,0,0,0,31.61-6.09,20.16,20.16,0,0,0,1.45-7.48,19.27,19.27,0,0,0-5.47-13.58A18.7,18.7,0,0,0,529,432.81Z" transform="translate(-382.29 -351.74)" style="fill:#FF4EA8"/><path d="M587.42,476.68H572a3.15,3.15,0,0,1-3.14-3.14V430.42a2.92,2.92,0,0,1,.94-2.19,3.19,3.19,0,0,1,2.2-1h15.59a25.64,25.64,0,0,1,18,7.29,25.34,25.34,0,0,1,5.47,7.86,24.18,24.18,0,0,1,2,9.62,23,23,0,0,1-2.07,9.55,24.55,24.55,0,0,1-5.53,7.86,25.73,25.73,0,0,1-8.11,5.27A26.47,26.47,0,0,1,587.42,476.68ZM575.1,470.4h12.45a21,21,0,0,0,7.35-1.51,19,19,0,0,0,6.16-4,19.46,19.46,0,0,0,4.15-5.91,16.89,16.89,0,0,0,1.51-7,17.5,17.5,0,0,0-1.51-7.11,17.86,17.86,0,0,0-4.09-5.84,19.15,19.15,0,0,0-13.57-5.53H575.1Z" transform="translate(-382.29 -351.74)" style="fill:#FF4EA8"/></g><g id="use"><path d="M447.08,552.86A23,23,0,0,1,435.33,550a16.7,16.7,0,0,1-6.47-6.6,23.93,23.93,0,0,1-2.58-11.38V505.84a3.19,3.19,0,0,1,3.14-3.14,3.15,3.15,0,0,1,3.14,3.14v26.21a17.61,17.61,0,0,0,1.83,8.36,10.47,10.47,0,0,0,4.08,4.21,20,20,0,0,0,17.22,0,10.65,10.65,0,0,0,4-4.15,18,18,0,0,0,1.82-8.42V505.84a3.19,3.19,0,0,1,3.14-3.14,3.15,3.15,0,0,1,3.14,3.14v26.21a23.89,23.89,0,0,1-2.57,11.38C462.92,547.76,457.89,552.86,447.08,552.86Z" transform="translate(-382.29 -351.74)" style="fill:#FF4EA8"/><path d="M500.88,552.86c-13.64,0-17.47-6.42-17.91-7.17a3.14,3.14,0,0,1,5.47-3.08,7.37,7.37,0,0,0,2.39,1.89c3.14,1.69,7.22,2.07,10.05,2.07,4.15,0,7.29-.88,9.05-2.51a5.22,5.22,0,0,0,1.7-3.9,7.13,7.13,0,0,0-2.2-5.53c-1.95-2-5.34-3.4-10.12-4.34a25.18,25.18,0,0,1-8.86-3.58,15.26,15.26,0,0,1-4.72-5.09,13.25,13.25,0,0,1-1.82-6.73,12.24,12.24,0,0,1,4.28-9.05A15.27,15.27,0,0,1,493,503a17.79,17.79,0,0,1,6.1-1c12.25,0,15.84,5.78,16.21,6.47a3.16,3.16,0,0,1-1.19,4.28,3.13,3.13,0,0,1-4.21-1.14,8.67,8.67,0,0,0-2.08-1.63,19.21,19.21,0,0,0-8.73-1.7,9.68,9.68,0,0,0-6.73,2.27A6.14,6.14,0,0,0,490.2,515v.12a7,7,0,0,0,1.13,3.65,9.05,9.05,0,0,0,2.89,2.89,18.92,18.92,0,0,0,6.35,2.45c6,1.2,10.37,3.15,13.26,6a13.57,13.57,0,0,1,4.08,10.06,11.69,11.69,0,0,1-3.7,8.55C511.25,551.47,506.73,552.86,500.88,552.86Z" transform="translate(-382.29 -351.74)" style="fill:#FF4EA8"/><path d="M569,548.9a3.11,3.11,0,0,1-3.14,3.14h-30a3.15,3.15,0,0,1-3.14-3.14V505.84a3.15,3.15,0,0,1,3.14-3.14h29.42a3.15,3.15,0,0,1,0,6.29H539v15.14h23.25a3.15,3.15,0,0,1,3.14,3.15,3.11,3.11,0,0,1-3.14,3.14H539v15.33h26.9A3.12,3.12,0,0,1,569,548.9Z" transform="translate(-382.29 -351.74)" style="fill:#FF4EA8"/></g><g id="co"><path d="M469.08,628.34A25.25,25.25,0,0,1,459,626.26a26.41,26.41,0,0,1-8.17-5.53,25,25,0,0,1-5.53-8.17,24.35,24.35,0,0,1-2-9.87,24.87,24.87,0,0,1,7.6-18,26,26,0,0,1,18.36-7.55,24.76,24.76,0,0,1,15.33,5.16,3.14,3.14,0,1,1-3.77,5,18.64,18.64,0,0,0-11.56-3.89A19.73,19.73,0,0,0,451,595.28a18.7,18.7,0,0,0-1.51,7.41,19,19,0,0,0,5.72,13.58,19.45,19.45,0,0,0,13.83,5.78,19.26,19.26,0,0,0,12.32-4.46,3.12,3.12,0,0,1,4,4.78,25.54,25.54,0,0,1-7.48,4.33A25.11,25.11,0,0,1,469.08,628.34Z" transform="translate(-382.29 -351.74)" style="fill:#FF4EA8"/><path d="M526.84,628.59a25.18,25.18,0,0,1-10.06-2.08,26,26,0,0,1-8.23-5.53,26.75,26.75,0,0,1-5.53-8.17,25.38,25.38,0,0,1-2-9.86,24.56,24.56,0,0,1,2.07-9.94,26.46,26.46,0,0,1,13.83-13.63,26.41,26.41,0,0,1,10.12-2,25.39,25.39,0,0,1,23.38,15.72,25.32,25.32,0,0,1,1.94,9.87A25.57,25.57,0,0,1,545,621,25.25,25.25,0,0,1,526.84,628.59Zm.19-44.94a20,20,0,0,0-7.67,1.51,19.42,19.42,0,0,0-6.29,4.21,17.9,17.9,0,0,0-4.21,6.16,17.63,17.63,0,0,0-1.57,7.42A19,19,0,0,0,513,616.52a19.45,19.45,0,0,0,13.83,5.78,19.21,19.21,0,0,0,17.78-11.88,20.1,20.1,0,0,0,1.45-7.47,19.25,19.25,0,0,0-5.47-13.58A18.7,18.7,0,0,0,527,583.65Z" transform="translate(-382.29 -351.74)" style="fill:#FF4EA8"/><path d="M570.31,622.52a4.69,4.69,0,1,1-9.37,0,4.69,4.69,0,1,1,9.37,0Z" transform="translate(-382.29 -351.74)" style="fill:#FF4EA8"/></g></g></svg>
